<svg width="21" height="14" viewBox="0 0 21 14" fill="none" xmlns="http://www.w3.org/2000/svg">
<path d="M1 6.25H0.25L0.25 7.75H1L1 6.25ZM18 7.75H18.75V6.25H18V7.75ZM13.4801 1.42383L12.904 0.943696L11.9437 2.09603L12.5199 2.57617L13.4801 1.42383ZM19 7L19.4801 7.57617L20.1715 7L19.4801 6.42383L19 7ZM12.5199 11.4238L11.9437 11.904L12.904 13.0563L13.4801 12.5762L12.5199 11.4238ZM1 7.75L18 7.75V6.25L1 6.25L1 7.75ZM12.5199 2.57617L18.5199 7.57617L19.4801 6.42383L13.4801 1.42383L12.5199 2.57617ZM18.5199 6.42383L12.5199 11.4238L13.4801 12.5762L19.4801 7.57617L18.5199 6.42383Z" fill="#0F1113"/>
</svg>
