<svg width="25" height="24" viewBox="0 0 25 24" fill="none" xmlns="http://www.w3.org/2000/svg">
<path d="M3.5 11.25H2.75L2.75 12.75H3.5L3.5 11.25ZM20.5 12.75H21.25V11.25H20.5V12.75ZM15.9801 6.42383L15.404 5.9437L14.4437 7.09603L15.0199 7.57617L15.9801 6.42383ZM21.5 12L21.9801 12.5762L22.6715 12L21.9801 11.4238L21.5 12ZM15.0199 16.4238L14.4437 16.904L15.404 18.0563L15.9801 17.5762L15.0199 16.4238ZM3.5 12.75L20.5 12.75V11.25L3.5 11.25L3.5 12.75ZM15.0199 7.57617L21.0199 12.5762L21.9801 11.4238L15.9801 6.42383L15.0199 7.57617ZM21.0199 11.4238L15.0199 16.4238L15.9801 17.5762L21.9801 12.5762L21.0199 11.4238Z" fill="white"/>
</svg>
