<svg width="240" height="120" viewBox="0 0 240 120" fill="none" xmlns="http://www.w3.org/2000/svg">
<path d="M24.5599 2.18921C24.5599 2.41457 24.7561 2.57554 24.9522 2.57554H39.5322C39.7611 2.57554 39.9245 2.41457 39.9245 2.18921C39.9245 1.64191 39.1399 1.1268 38.2573 0.772661C37.2766 0.386331 36.4593 0.193165 36.0016 0.193165C34.6613 0.0643884 33.3864 0 32.2422 0C30.8692 0 29.627 0.0643884 28.4828 0.160971C27.7309 0.160971 24.5599 1.06241 24.5599 2.18921Z" fill="white"/>
<path fill-rule="evenodd" clip-rule="evenodd" d="M0 100.641C2.94151 102.396 11.0663 102.191 14.099 102.056C14.2625 102.056 14.3279 102.249 14.2298 102.345C13.8375 102.667 13.3471 103.118 12.9875 103.504C12.726 103.762 12.9222 104.213 13.2818 104.213H51.7259C51.8894 104.213 51.9548 104.052 51.8567 103.923C51.0721 103.118 50.4837 102.667 49.7972 102.184C49.2571 101.799 48.8097 101.528 48.4327 101.299C47.6457 100.823 47.1654 100.532 46.7897 99.7698C46.6771 99.5482 46.6072 99.3495 46.5426 99.1658C46.4194 98.8157 46.3154 98.5201 45.9724 98.2245C45.5147 97.8382 44.959 97.7738 44.5013 97.7416C44.4032 97.7416 44.3379 97.645 44.3379 97.5806C44.4838 92.6944 44.8944 89.3619 45.2685 86.3246C45.565 83.9186 45.8386 81.6978 45.9397 79.0368C45.9723 77.8805 45.8423 77.0767 45.6144 76.4975C45.6453 76.5803 46.0601 77.9012 41.788 79.5841C37.1786 81.4191 25.41 84.0591 25.41 84.0591C25.41 84.0591 34.6941 81.1616 37.5382 80.1958C37.7276 80.1336 37.9443 80.0651 38.1813 79.9903C40.1539 79.3675 43.5253 78.303 44.109 76.751C44.3052 76.2359 43.9783 75.9139 43.8475 75.8173C43.8148 75.7851 43.7821 75.753 43.7821 75.6886V74.9159H43.7494C44.4032 66.7386 44.7628 60.7826 44.8609 59.0442C44.8936 58.529 44.9263 57.5632 44.4686 56.7584C44.4686 57.7564 43.3244 58.6578 42.8014 58.8832C40.3326 59.9109 36.219 60.919 29.5812 62.5458C27.6935 63.0085 25.6013 63.5213 23.2851 64.0986C23.9389 63.9377 36.9498 60.2353 41.9514 58.2071C42.8995 57.8208 43.2918 57.3057 43.2591 56.7584C43.2264 56.2433 42.7687 55.8891 42.7687 55.8891C42.9107 53.9776 43.0637 52.1795 43.2015 50.5605C43.5393 46.5898 43.7855 43.6966 43.5533 42.8505C43.4879 42.5929 43.3898 42.3354 43.2918 42.1422C42.6706 43.4622 38.9439 44.267 34.6287 45.1363C33.6778 45.3304 32.591 45.5205 31.4123 45.7267L31.4111 45.7269L31.41 45.7271C29.2667 46.102 26.8193 46.5301 24.3312 47.1323C27.6192 45.918 32.1703 45.0204 34.8277 44.4962C35.3408 44.395 35.7833 44.3078 36.1325 44.2348C38.7805 43.6553 42.1476 42.6895 42.0822 41.8846C42.0822 41.6915 41.8861 41.5627 41.6899 41.4661C41.6572 40.7578 41.6245 40.0818 41.5592 39.3735C41.4303 36.9619 41.9048 34.1359 42.3176 31.6777C42.7423 29.1478 43.1017 27.0075 42.6706 26.1095C42.7033 26.2704 42.7033 26.4958 42.638 26.7534C42.311 28.1699 38.5516 29.2001 36.4921 29.6186C33.8442 30.1338 30.1501 31.0996 25.5734 32.9668C28.679 31.4215 31.3924 30.4557 33.3865 29.844C34.4045 29.5349 35.4082 29.2647 36.3505 29.011C39.4328 28.1811 41.859 27.5279 41.9841 26.2704C42.0168 25.9807 41.9188 25.7231 41.8207 25.5622C41.6572 25.208 41.6572 24.9505 41.6572 24.7573L41.6648 24.7054C41.7254 24.2863 41.7617 24.0352 41.9188 23.6949L41.9234 23.6875C42.3397 23.5042 42.6377 23.0954 42.6377 22.6003C42.6377 22.1367 42.3665 21.7231 41.9583 21.5279C42.9512 19.996 43.6452 18.2053 43.9756 16.2862C44.1412 15.4054 44.207 14.4942 44.207 13.5537C44.207 10.6275 43.3997 7.9222 42.0391 5.68993C42.1271 5.58875 42.18 5.45693 42.18 5.31208C42.18 3.99212 41.1012 2.92971 39.7609 2.92971H24.3636C23.0233 2.92971 21.9445 3.99212 21.9445 5.31208C21.9445 5.49889 22.0326 5.66403 22.1704 5.76974C20.8698 7.98587 20.0813 10.6608 20.0813 13.5215C20.0813 14.4624 20.1471 15.3739 20.3128 16.255C20.676 18.2059 21.3696 19.9627 22.3278 21.5246L22.3304 21.5288C21.9321 21.7191 21.6503 22.1189 21.6503 22.6003C21.6503 23.0674 21.9255 23.4836 22.3387 23.677C22.3291 23.7029 22.3275 23.7311 22.3371 23.7593C22.5986 24.8539 22.8601 26.0773 23.0236 27.4294C23.3505 29.8118 23.3505 31.9688 23.2197 33.7717C23.2197 33.8361 23.187 33.9005 23.1216 33.9005C22.9255 33.9649 22.6967 34.0614 22.4678 34.2224C21.1454 35.2071 21.3505 37.4453 21.7016 41.2772L21.7159 41.4339C21.7968 42.4164 21.9444 44.0122 22.1404 46.1309L22.2717 47.5508C22.2717 47.6474 22.2063 47.7118 22.1409 47.744C21.814 47.8084 21.2583 48.0015 20.9641 48.2913C19.7892 49.4483 19.9602 51.5151 20.2916 55.519C20.329 55.9713 20.3685 56.4483 20.4083 56.9515C20.4623 57.6605 20.5758 58.7696 20.7268 60.2466L20.727 60.248C20.8503 61.4534 20.9986 62.9038 21.1602 64.5816C21.1602 64.646 21.1275 64.7103 21.0621 64.7425C20.8006 64.8713 20.4083 65.0967 20.0487 65.4186C18.1887 67.1645 18.6282 70.2336 19.254 74.6033C19.3321 75.1486 19.4132 75.7146 19.493 76.3003C19.7872 78.5217 20.1795 81.7411 20.4083 85.7975C20.4083 85.8619 20.3756 85.9263 20.3102 85.9585C19.7872 86.2161 19.1007 86.6346 18.3488 87.2141C17.9194 87.5162 17.6627 87.7332 17.4436 87.9184L17.4008 87.9546C16.6835 88.6609 16.6766 89.5288 16.6557 92.1569L16.6557 92.158C16.6538 92.4042 16.6517 92.6662 16.6489 92.9447C16.6464 93.1566 16.6437 93.3568 16.6411 93.5463C16.6104 95.8313 16.6009 96.5402 17.2046 97.1943C17.5315 97.5484 17.9238 97.7416 18.2507 97.8382C18.3815 97.8704 18.3815 98.0314 18.3161 98.0957L18.218 98.1923C18.1853 98.2245 18.1527 98.2567 18.0873 98.2567C14.8509 98.1601 11.4184 98.1601 7.85511 98.2567C5.14324 98.3429 2.5094 98.4546 0 98.6377V100.641ZM41.5916 5.89157H40.2821C38.2479 5.932 36.1245 5.96791 33.9387 5.98189C33.3474 7.99045 32.6913 11.2524 33.2881 15.1312C33.712 17.7966 34.5588 19.9175 35.3093 21.3979C37.5248 21.3818 39.6776 21.3467 41.7288 21.2831C42.6726 19.8049 43.3352 18.0806 43.6535 16.2312L43.654 16.2287C43.8152 15.3714 43.8801 14.4801 43.8801 13.5537C43.8801 10.6906 43.0915 8.04651 41.7653 5.86629C41.7105 5.88274 41.6521 5.89157 41.5916 5.89157ZM23.5107 5.89157C25.7982 5.95194 28.1885 5.97911 30.6551 5.98616C31.0064 7.37339 31.3325 9.22851 31.365 11.4123C30.4038 10.1107 28.2586 8.98523 25.5077 9.17534C24.1674 9.17534 23.0886 10.8816 23.0886 12.9743C23.0886 15.0669 24.1674 16.7732 25.5077 16.7732C28.1482 16.8834 30.1914 15.7867 31.2072 14.5366C31.1844 14.7331 31.1588 14.9314 31.1305 15.1312C30.7715 17.7024 30.0216 19.8244 29.3035 21.4011C26.9718 21.3866 24.7089 21.3512 22.562 21.2833C21.6477 19.7733 20.9845 18.0778 20.6343 16.1966C20.4731 15.3392 20.4082 14.448 20.4082 13.5215C20.4082 10.7008 21.1908 8.06562 22.478 5.88912C22.4961 5.89075 22.5144 5.89157 22.533 5.89157H23.5107ZM23.5136 12.9421C23.5136 14.7127 24.4289 16.1615 25.5731 16.1615C26.6846 16.1615 27.6326 14.7127 27.6326 12.9421C27.6326 11.1714 26.7173 9.72264 25.5731 9.72264C24.4289 9.72264 23.5136 11.1714 23.5136 12.9421ZM19.068 97.3231C19.6891 97.1299 19.7545 95.649 19.7545 93.5564C19.7872 88.3731 19.5584 87.7614 19.068 87.6004C18.4985 87.4135 17.8066 88.101 17.6737 88.233L17.6623 88.2443C17.1597 88.7864 17.1477 89.2596 17.1132 90.6239C17.1006 91.123 17.085 91.7414 17.0412 92.5261C17.0412 92.5261 16.845 96.0353 17.6296 96.9046L17.6623 96.9368C18.0873 97.3553 18.8065 97.3875 19.068 97.3231Z" fill="white"/>
<path d="M106.758 43.8545L106.719 23.8255L96.7831 40.5164H94.9766L85.0406 23.9433V43.8545H81.2704V16.3636H84.4908L95.9584 35.6858L107.269 16.3636H110.489L110.529 43.8545H106.758Z" fill="white"/>
<path fill-rule="evenodd" clip-rule="evenodd" d="M132.478 24.9644C130.959 23.5505 128.76 22.8436 125.88 22.8436C124.204 22.8436 122.62 23.0793 121.128 23.5505C119.636 23.9956 118.353 24.6502 117.279 25.5142L118.85 28.3418C119.662 27.6611 120.657 27.1244 121.835 26.7316C123.013 26.3127 124.217 26.1033 125.448 26.1033C127.281 26.1033 128.668 26.5353 129.611 27.3993C130.553 28.2633 131.025 29.5069 131.025 31.1302V31.8764H125.055C122.149 31.8764 120.028 32.4393 118.693 33.5651C117.358 34.6647 116.69 36.1309 116.69 37.9636C116.69 39.7964 117.384 41.2756 118.772 42.4015C120.185 43.5273 122.057 44.0902 124.388 44.0902C125.985 44.0902 127.359 43.8415 128.511 43.344C129.689 42.8204 130.593 42.0742 131.221 41.1055V43.8545H134.795V31.2873C134.795 28.4858 134.022 26.3782 132.478 24.9644ZM128.747 40.2415C127.7 40.8698 126.456 41.184 125.016 41.184C123.576 41.184 122.45 40.8829 121.638 40.2807C120.827 39.6785 120.421 38.8538 120.421 37.8065C120.421 35.6596 122.018 34.5862 125.212 34.5862H131.025V37.4924C130.553 38.6705 129.794 39.5869 128.747 40.2415Z" fill="white"/>
<path fill-rule="evenodd" clip-rule="evenodd" d="M158.275 23.04V43.8545H154.897V37.2567H148.417L143.862 43.8545H139.817L144.883 36.7462C143.312 36.2749 142.107 35.5025 141.27 34.4291C140.432 33.3295 140.013 31.968 140.013 30.3447C140.013 27.9622 140.825 26.1556 142.448 24.9251C144.071 23.6684 146.31 23.04 149.163 23.04H158.275ZM143.862 30.4625C143.862 31.8502 144.294 32.8844 145.158 33.5651C146.048 34.2196 147.37 34.5469 149.124 34.5469H154.897V26.3389H149.281C145.668 26.3389 143.862 27.7135 143.862 30.4625Z" fill="white"/>
<path d="M169.401 35.0575H173.721L180.711 43.8545H185.149L176.706 33.0545L184.599 23.04H180.554L173.799 31.8371H169.401V23.04H165.631V43.8545H169.401V35.0575Z" fill="white"/>
<path fill-rule="evenodd" clip-rule="evenodd" d="M111.589 69.3426C111.589 72.9818 110.319 75.8356 107.779 77.904C105.24 79.9724 101.653 81.0851 97.0188 81.2422V84.1484H93.3664V81.2422C88.7322 81.0589 85.1322 79.9331 82.5664 77.8647C80.0267 75.7964 78.7569 72.9556 78.7569 69.3426C78.7569 65.7033 80.0267 62.8495 82.5664 60.7811C85.1322 58.7127 88.7322 57.5869 93.3664 57.4036V54.6153H97.0188V57.4036C101.627 57.5869 105.201 58.7258 107.74 60.8204C110.306 62.8887 111.589 65.7295 111.589 69.3426ZM97.0188 78.1789C100.527 77.9695 103.198 77.1186 105.03 75.6262C106.889 74.1076 107.819 72 107.819 69.3033C107.819 66.6589 106.876 64.5905 104.991 63.0982C103.132 61.5796 100.475 60.7156 97.0188 60.5062V78.1789ZM82.5664 69.3426C82.5664 72.0131 83.4958 74.1076 85.3548 75.6262C87.2398 77.1186 89.9104 77.9695 93.3664 78.1789V60.5062C89.858 60.7156 87.1744 61.5665 85.3155 63.0589C83.4827 64.5513 82.5664 66.6458 82.5664 69.3426Z" fill="white"/>
<path d="M120.77 62.3127H117V83.1273H120.456L133.18 67.968V83.1273H136.951V62.3127H133.534L120.77 77.472V62.3127Z" fill="white"/>
<path d="M144.268 62.3127H148.039V71.1491H159.899V62.3127H163.669V83.1273H159.899V74.4087H148.039V83.1273H144.268V62.3127Z" fill="white"/>
<path fill-rule="evenodd" clip-rule="evenodd" d="M185.02 64.2371C183.502 62.8233 181.303 62.1164 178.423 62.1164C176.747 62.1164 175.163 62.352 173.671 62.8233C172.178 63.2684 170.895 63.9229 169.822 64.7869L171.393 67.6145C172.204 66.9338 173.199 66.3971 174.377 66.0044C175.556 65.5855 176.76 65.376 177.991 65.376C179.823 65.376 181.211 65.808 182.153 66.672C183.096 67.536 183.567 68.7796 183.567 70.4029V71.1491H177.598C174.692 71.1491 172.571 71.712 171.236 72.8378C169.9 73.9375 169.233 75.4036 169.233 77.2364C169.233 79.0691 169.927 80.5484 171.314 81.6742C172.728 82.8 174.6 83.3629 176.93 83.3629C178.527 83.3629 179.902 83.1142 181.054 82.6167C182.232 82.0931 183.135 81.3469 183.764 80.3782V83.1273H187.337V70.56C187.337 67.7585 186.565 65.6509 185.02 64.2371ZM181.289 79.5142C180.242 80.1425 178.999 80.4567 177.559 80.4567C176.119 80.4567 174.993 80.1556 174.181 79.5535C173.369 78.9513 172.964 78.1266 172.964 77.0793C172.964 74.9324 174.561 73.8589 177.755 73.8589H183.567V76.7651C183.096 77.9433 182.337 78.8596 181.289 79.5142Z" fill="white"/>
<path d="M194.126 62.3127H197.897V71.1491H209.757V62.3127H213.527V83.1273H209.757V74.4087H197.897V83.1273H194.126V62.3127Z" fill="white"/>
<path d="M224.235 81.9884C225.911 82.9047 227.809 83.3629 229.93 83.3629C231.815 83.3629 233.491 82.9833 234.957 82.224C236.449 81.4385 237.601 80.3258 238.413 78.8858L235.546 77.0793C234.891 78.0742 234.08 78.8204 233.111 79.3178C232.142 79.8153 231.069 80.064 229.891 80.064C228.529 80.064 227.299 79.7629 226.199 79.1607C225.126 78.5585 224.275 77.7076 223.646 76.608C223.044 75.4822 222.743 74.1862 222.743 72.72C222.743 71.28 223.044 70.0102 223.646 68.9105C224.275 67.7847 225.126 66.9207 226.199 66.3186C227.299 65.7164 228.529 65.4153 229.891 65.4153C231.069 65.4153 232.142 65.664 233.111 66.1615C234.08 66.6589 234.891 67.4051 235.546 68.4L238.413 66.5542C237.601 65.1142 236.449 64.0145 234.957 63.2553C233.491 62.496 231.815 62.1164 229.93 62.1164C227.809 62.1164 225.911 62.5745 224.235 63.4909C222.586 64.3811 221.29 65.6378 220.347 67.2611C219.405 68.8582 218.934 70.6778 218.934 72.72C218.934 74.7622 219.405 76.5949 220.347 78.2182C221.29 79.8153 222.586 81.072 224.235 81.9884Z" fill="white"/>
<path d="M81.6051 103.287C81.027 103.287 80.5034 103.151 80.0344 102.88C79.5708 102.602 79.2054 102.221 78.9381 101.737C78.6763 101.253 78.5455 100.706 78.5455 100.098C78.5455 99.4897 78.6791 98.9434 78.9463 98.4591C79.2136 97.9748 79.579 97.5968 80.0425 97.3252C80.5116 97.0476 81.0352 96.9088 81.6133 96.9088C82.0823 96.9088 82.5104 96.9974 82.8977 97.1746C83.2849 97.3518 83.6121 97.6087 83.8794 97.9453L83.1922 98.6452C82.7777 98.1609 82.2677 97.9187 81.6624 97.9187C81.2697 97.9187 80.9179 98.0132 80.607 98.2022C80.2962 98.3853 80.0535 98.6422 79.8789 98.9729C79.7044 99.3037 79.6171 99.6787 79.6171 100.098C79.6171 100.517 79.7044 100.892 79.8789 101.223C80.0535 101.554 80.2962 101.814 80.607 102.003C80.9179 102.186 81.2697 102.277 81.6624 102.277C82.2677 102.277 82.7777 102.032 83.1922 101.542L83.8794 102.251C83.6121 102.587 83.2822 102.844 82.8895 103.021C82.5023 103.199 82.0741 103.287 81.6051 103.287Z" fill="white"/>
<path fill-rule="evenodd" clip-rule="evenodd" d="M87.4549 102.88C87.9239 103.151 88.4502 103.287 89.0338 103.287C89.6173 103.287 90.1436 103.151 90.6127 102.88C91.0817 102.602 91.4498 102.221 91.7171 101.737C91.9843 101.253 92.1179 100.706 92.1179 100.098C92.1179 99.4897 91.9843 98.9434 91.7171 98.4591C91.4498 97.9748 91.0817 97.5968 90.6127 97.3252C90.1436 97.0476 89.6173 96.9088 89.0338 96.9088C88.4502 96.9088 87.9239 97.0476 87.4549 97.3252C86.9858 97.5968 86.6177 97.9778 86.3504 98.468C86.0832 98.9523 85.9496 99.4956 85.9496 100.098C85.9496 100.7 86.0832 101.247 86.3504 101.737C86.6177 102.221 86.9858 102.602 87.4549 102.88ZM90.0645 102.003C89.7591 102.186 89.4155 102.277 89.0338 102.277C88.652 102.277 88.3084 102.186 88.003 102.003C87.6975 101.814 87.4576 101.554 87.2831 101.223C87.1085 100.886 87.0213 100.511 87.0213 100.098C87.0213 99.6846 87.1085 99.3125 87.2831 98.9818C87.4576 98.6451 87.6975 98.3853 88.003 98.2022C88.3084 98.0132 88.652 97.9187 89.0338 97.9187C89.4155 97.9187 89.7591 98.0132 90.0645 98.2022C90.37 98.3853 90.6099 98.6451 90.7845 98.9818C90.959 99.3125 91.0462 99.6846 91.0462 100.098C91.0462 100.511 90.959 100.886 90.7845 101.223C90.6099 101.554 90.37 101.814 90.0645 102.003Z" fill="white"/>
<path d="M100.002 96.9974V103.199H98.9549V97.9719H95.9852V103.199H94.9381V96.9974H100.002Z" fill="white"/>
<path fill-rule="evenodd" clip-rule="evenodd" d="M106.902 97.2632C106.536 97.086 106.105 96.9974 105.609 96.9974H103.253V103.199H104.316V101.409H105.609C106.105 101.409 106.536 101.321 106.902 101.143C107.272 100.966 107.556 100.712 107.752 100.382C107.949 100.045 108.047 99.6521 108.047 99.2033C108.047 98.7485 107.949 98.3558 107.752 98.025C107.556 97.6943 107.272 97.4404 106.902 97.2632ZM106.615 100.116C106.375 100.328 106.024 100.435 105.56 100.435H104.316V97.9719H105.56C106.024 97.9719 106.375 98.0782 106.615 98.2908C106.855 98.5034 106.975 98.8076 106.975 99.2033C106.975 99.599 106.855 99.9031 106.615 100.116Z" fill="white"/>
<path fill-rule="evenodd" clip-rule="evenodd" d="M113.42 103.287C112.836 103.287 112.31 103.151 111.841 102.88C111.372 102.602 111.004 102.221 110.736 101.737C110.469 101.247 110.336 100.7 110.336 100.098C110.336 99.4956 110.469 98.9523 110.736 98.468C111.004 97.9778 111.372 97.5968 111.841 97.3252C112.31 97.0476 112.836 96.9088 113.42 96.9088C114.003 96.9088 114.53 97.0476 114.999 97.3252C115.468 97.5968 115.836 97.9748 116.103 98.4591C116.37 98.9434 116.504 99.4897 116.504 100.098C116.504 100.706 116.37 101.253 116.103 101.737C115.836 102.221 115.468 102.602 114.999 102.88C114.53 103.151 114.003 103.287 113.42 103.287ZM113.42 102.277C113.801 102.277 114.145 102.186 114.451 102.003C114.756 101.814 114.996 101.554 115.17 101.223C115.345 100.886 115.432 100.511 115.432 100.098C115.432 99.6846 115.345 99.3125 115.17 98.9818C114.996 98.6451 114.756 98.3853 114.451 98.2022C114.145 98.0132 113.801 97.9187 113.42 97.9187C113.038 97.9187 112.694 98.0132 112.389 98.2022C112.084 98.3853 111.844 98.6451 111.669 98.9818C111.494 99.3125 111.407 99.6846 111.407 100.098C111.407 100.511 111.494 100.886 111.669 101.223C111.844 101.554 112.084 101.814 112.389 102.003C112.694 102.186 113.038 102.277 113.42 102.277Z" fill="white"/>
<path fill-rule="evenodd" clip-rule="evenodd" d="M123.922 100.523C123.731 100.263 123.453 100.08 123.087 99.974C123.36 99.85 123.567 99.6698 123.709 99.4336C123.856 99.1974 123.93 98.9168 123.93 98.592C123.93 98.0841 123.75 97.6913 123.39 97.4138C123.03 97.1362 122.528 96.9974 121.885 96.9974H119.324V103.199H122.04C122.744 103.199 123.281 103.048 123.652 102.747C124.023 102.446 124.208 102.023 124.208 101.48C124.208 101.096 124.113 100.777 123.922 100.523ZM121.795 99.6462H120.371V97.8833H121.795C122.138 97.8833 122.4 97.9601 122.58 98.1136C122.76 98.2613 122.85 98.4798 122.85 98.7692C122.85 99.0586 122.76 99.2771 122.58 99.4247C122.4 99.5724 122.138 99.6462 121.795 99.6462ZM123.136 101.391C123.136 102.006 122.76 102.313 122.007 102.313H120.371V100.488H122.007C122.76 100.488 123.136 100.789 123.136 101.391Z" fill="white"/>
<path fill-rule="evenodd" clip-rule="evenodd" d="M129.706 103.287C129.123 103.287 128.596 103.151 128.127 102.88C127.658 102.602 127.29 102.221 127.023 101.737C126.756 101.247 126.622 100.7 126.622 100.098C126.622 99.4956 126.756 98.9523 127.023 98.468C127.29 97.9778 127.658 97.5968 128.127 97.3252C128.596 97.0476 129.123 96.9088 129.706 96.9088C130.29 96.9088 130.816 97.0476 131.285 97.3252C131.754 97.5968 132.122 97.9748 132.39 98.4591C132.657 98.9434 132.79 99.4897 132.79 100.098C132.79 100.706 132.657 101.253 132.39 101.737C132.122 102.221 131.754 102.602 131.285 102.88C130.816 103.151 130.29 103.287 129.706 103.287ZM129.706 102.277C130.088 102.277 130.432 102.186 130.737 102.003C131.043 101.814 131.283 101.554 131.457 101.223C131.632 100.886 131.719 100.511 131.719 100.098C131.719 99.6846 131.632 99.3125 131.457 98.9818C131.283 98.6451 131.043 98.3853 130.737 98.2022C130.432 98.0132 130.088 97.9187 129.706 97.9187C129.325 97.9187 128.981 98.0132 128.676 98.2022C128.37 98.3853 128.13 98.6451 127.956 98.9818C127.781 99.3125 127.694 99.6846 127.694 100.098C127.694 100.511 127.781 100.886 127.956 101.223C128.13 101.554 128.37 101.814 128.676 102.003C128.981 102.186 129.325 102.277 129.706 102.277Z" fill="white"/>
<path d="M139.42 100.585H140.401L141.841 103.199H143.068L141.277 99.974L142.946 96.9974H141.817L140.41 99.5931H139.42V96.9974H138.381V99.5931H137.375L135.976 96.9974H134.847L136.524 99.9651L134.724 103.199H135.951L137.399 100.585H138.381V103.199H139.42V100.585Z" fill="white"/>
<path fill-rule="evenodd" clip-rule="evenodd" d="M151.257 102.224V104.519H150.275V103.199H145.882V104.519H144.892L144.9 102.224H145.146C145.506 102.206 145.757 101.92 145.898 101.365C146.046 100.804 146.136 100.004 146.168 98.9641L146.234 96.9974H150.431V102.224H151.257ZM147.101 99.0704C147.074 99.8736 147.014 100.544 146.921 101.081C146.828 101.613 146.681 101.994 146.479 102.224H149.383V97.9719H147.142L147.101 99.0704Z" fill="white"/>
<path d="M158.189 103.199V102.233H154.958V100.523H157.723V99.5753H154.958V97.963H158.075V96.9974H153.894V103.199H158.189Z" fill="white"/>
<path d="M166.1 96.9974V103.199H165.036V100.541H162.075V103.199H161.011V96.9974H162.075V99.5576H165.036V96.9974H166.1Z" fill="white"/>
<path d="M170.397 96.9974H169.35V103.199H170.34L173.416 98.8046V103.199H174.463V96.9974H173.473L170.397 101.4V96.9974Z" fill="white"/>
<path d="M182 102.233V103.199H177.705V96.9974H181.885V97.963H178.769V99.5753H181.534V100.523H178.769V102.233H182Z" fill="white"/>
<path fill-rule="evenodd" clip-rule="evenodd" d="M193.186 96.9974H188.727V103.199H191.304C192.029 103.199 192.588 103.033 192.981 102.703C193.374 102.366 193.57 101.89 193.57 101.276C193.57 100.692 193.39 100.246 193.03 99.9386C192.676 99.6255 192.155 99.469 191.468 99.469H189.774V97.9453H193.186V96.9974ZM192.179 102.056C191.967 102.227 191.656 102.313 191.247 102.313H189.774V100.355H191.247C192.081 100.355 192.498 100.674 192.498 101.312C192.498 101.637 192.392 101.885 192.179 102.056Z" fill="white"/>
<path d="M196.379 96.9974H197.426V101.4L200.502 96.9974H201.492V103.199H200.445V98.8046L197.369 103.199H196.379V96.9974Z" fill="white"/>
<path d="M208.546 100.541C208.355 100.275 208.088 100.083 207.744 99.9651C208.012 99.8411 208.222 99.6639 208.374 99.4336C208.527 99.2033 208.603 98.9345 208.603 98.6274C208.603 98.2731 208.497 97.966 208.284 97.7061C208.072 97.4403 207.785 97.2366 207.425 97.0948C207.071 96.9531 206.681 96.8822 206.255 96.8822C205.928 96.8822 205.598 96.9265 205.266 97.0151C204.938 97.0978 204.627 97.2248 204.333 97.3961L204.668 98.3262C204.908 98.1727 205.165 98.0575 205.437 97.9807C205.71 97.8981 205.975 97.8567 206.231 97.8567C206.607 97.8567 206.915 97.9364 207.155 98.0959C207.401 98.2554 207.523 98.4798 207.523 98.7692C207.523 99.0113 207.434 99.2033 207.254 99.345C207.074 99.4867 206.825 99.5576 206.509 99.5576H205.257V100.461H206.591C206.956 100.461 207.243 100.532 207.45 100.674C207.657 100.816 207.761 101.022 207.761 101.294C207.761 101.613 207.616 101.864 207.327 102.047C207.044 102.23 206.686 102.322 206.255 102.322C205.956 102.322 205.653 102.274 205.347 102.18C205.042 102.079 204.764 101.938 204.513 101.755L204.169 102.596C204.497 102.827 204.851 103.001 205.233 103.119C205.62 103.231 206.005 103.287 206.386 103.287C206.828 103.287 207.234 103.213 207.605 103.066C207.982 102.918 208.282 102.708 208.505 102.437C208.729 102.159 208.841 101.834 208.841 101.462C208.841 101.108 208.742 100.801 208.546 100.541Z" fill="white"/>
<path d="M216.771 96.9974V103.199H215.708V100.541H212.746V103.199H211.683V96.9974H212.746V99.5576H215.708V96.9974H216.771Z" fill="white"/>
<path d="M224.309 103.199V102.233H221.077V100.523H223.842V99.5753H221.077V97.963H224.194V96.9974H220.014V103.199H224.309Z" fill="white"/>
<path d="M229.741 103.287C229.163 103.287 228.639 103.151 228.17 102.88C227.706 102.602 227.341 102.221 227.074 101.737C226.812 101.253 226.681 100.706 226.681 100.098C226.681 99.4897 226.815 98.9434 227.082 98.4591C227.349 97.9748 227.715 97.5968 228.178 97.3252C228.647 97.0476 229.171 96.9088 229.749 96.9088C230.218 96.9088 230.646 96.9974 231.033 97.1746C231.421 97.3518 231.748 97.6087 232.015 97.9453L231.328 98.6452C230.913 98.1609 230.403 97.9187 229.798 97.9187C229.405 97.9187 229.054 98.0132 228.743 98.2022C228.432 98.3853 228.189 98.6422 228.015 98.9729C227.84 99.3037 227.753 99.6787 227.753 100.098C227.753 100.517 227.84 100.892 228.015 101.223C228.189 101.554 228.432 101.814 228.743 102.003C229.054 102.186 229.405 102.277 229.798 102.277C230.403 102.277 230.913 102.032 231.328 101.542L232.015 102.251C231.748 102.587 231.418 102.844 231.025 103.021C230.638 103.199 230.21 103.287 229.741 103.287Z" fill="white"/>
<path fill-rule="evenodd" clip-rule="evenodd" d="M234.887 103.199L235.451 101.763H238.315L238.887 103.199H240L237.415 96.9974H236.368L233.791 103.199H234.887ZM236.883 98.1491L237.963 100.86H235.811L236.883 98.1491Z" fill="white"/>
<path d="M52.5756 111.295C52.8691 114.734 52.9873 114.421 54.0972 120H9.81818C9.81818 120 11.64 114.781 12.0392 111.295C12.2896 109.109 12.3007 107.223 12.2026 105.645C12.1699 105.13 12.5949 104.728 13.0853 104.728H51.5295C52.0198 104.728 52.4448 105.13 52.4121 105.645C52.4121 106.965 52.3872 109.09 52.5756 111.295Z" fill="white"/>
</svg>
