<svg width="137" height="38" viewBox="0 0 137 38" fill="none" xmlns="http://www.w3.org/2000/svg">
<path d="M17.0946 0.918821H6.53851C5.81603 0.918821 5.20176 1.44376 5.08905 2.15709L0.819679 29.2256C0.734764 29.7595 1.14852 30.2412 1.69021 30.2412H6.72984C7.45219 30.2412 8.06646 29.7165 8.17917 29.0019L9.33061 21.7011C9.44182 20.9863 10.0576 20.4615 10.7784 20.4615H14.1202C21.0737 20.4615 25.0868 17.0966 26.135 10.4286C26.6072 7.51132 26.155 5.21926 24.7889 3.61402C23.2887 1.85115 20.6276 0.918821 17.0946 0.918821ZM18.3124 10.8053C17.7351 14.5931 14.841 14.5931 12.0426 14.5931H10.4497L11.5672 7.51915C11.6336 7.09154 12.004 6.77667 12.4362 6.77667H13.1662C15.0725 6.77667 16.8708 6.77667 17.7999 7.86319C18.3541 8.51157 18.5239 9.47467 18.3124 10.8053Z" fill="#CCCCCC"/>
<path d="M48.6486 10.6835H43.5938C43.1632 10.6835 42.7912 10.9984 42.7246 11.4259L42.5011 12.8398L42.1475 12.3273C41.0532 10.7389 38.6127 10.2081 36.1771 10.2081C30.5911 10.2081 25.8201 14.4388 24.8909 20.3737C24.4079 23.3341 25.0947 26.1649 26.774 28.139C28.3144 29.9541 30.5186 30.7104 33.1411 30.7104C37.642 30.7104 40.1379 27.8165 40.1379 27.8165L39.9125 29.2211C39.8275 29.7583 40.2413 30.2398 40.7801 30.2398H45.3331C46.0571 30.2398 46.6683 29.715 46.7827 29.0005L49.5146 11.6991C49.6012 11.1665 49.189 10.6835 48.6486 10.6835ZM41.6026 20.5219C41.115 23.4097 38.8227 25.3485 35.8995 25.3485C34.4316 25.3485 33.2584 24.8776 32.5051 23.9855C31.758 23.0995 31.474 21.8384 31.7118 20.4338C32.167 17.5706 34.4979 15.5688 37.3764 15.5688C38.812 15.5688 39.9788 16.0456 40.7475 16.9454C41.5179 17.8545 41.8232 19.1233 41.6026 20.5219Z" fill="#CCCCCC"/>
<path d="M75.5703 10.6836H70.4907C70.006 10.6836 69.5506 10.9244 69.2759 11.3273L62.2698 21.6472L59.3002 11.7301C59.1135 11.1095 58.5409 10.6836 57.8926 10.6836H52.9009C52.2941 10.6836 51.8729 11.2762 52.0658 11.8473L57.661 28.2673L52.4007 35.6932C51.9869 36.278 52.4036 37.0825 53.1186 37.0825H58.1921C58.6735 37.0825 59.1244 36.8478 59.3975 36.4526L76.2927 12.0651C76.6972 11.4815 76.282 10.6836 75.5703 10.6836Z" fill="#CCCCCC"/>
<path d="M92.3885 0.918821H81.8309C81.1101 0.918821 80.4956 1.44376 80.3829 2.15709L76.1136 29.2256C76.0289 29.7595 76.4424 30.2412 76.9812 30.2412H82.3989C82.902 30.2412 83.3329 29.874 83.4115 29.3738L84.623 21.7011C84.7341 20.9863 85.3502 20.4615 86.0709 20.4615H89.4112C96.3661 20.4615 100.378 17.0966 101.427 10.4286C101.901 7.51132 101.446 5.21926 100.08 3.61402C98.5811 1.85115 95.9216 0.918821 92.3885 0.918821ZM93.6065 10.8053C93.0306 14.5931 90.1367 14.5931 87.3365 14.5931H85.7453L86.8644 7.51915C86.9308 7.09154 87.2979 6.77667 87.7317 6.77667H88.4618C90.3667 6.77667 92.1663 6.77667 93.0954 7.86319C93.6496 8.51157 93.8177 9.47467 93.6065 10.8053Z" fill="white"/>
<path d="M123.942 10.6835H118.89C118.456 10.6835 118.087 10.9984 118.022 11.4259L117.798 12.8398L117.443 12.3273C116.349 10.7389 113.91 10.2081 111.475 10.2081C105.888 10.2081 101.119 14.4388 100.19 20.3737C99.7083 23.3341 100.392 26.1649 102.072 28.139C103.615 29.9541 105.816 30.7104 108.438 30.7104C112.939 30.7104 115.435 27.8165 115.435 27.8165L115.21 29.2211C115.125 29.7583 115.539 30.2398 116.081 30.2398H120.632C121.353 30.2398 121.967 29.715 122.08 29.0005L124.814 11.6991C124.897 11.1665 124.483 10.6835 123.942 10.6835ZM116.895 20.5219C116.411 23.4097 114.115 25.3485 111.192 25.3485C109.727 25.3485 108.551 24.8776 107.798 23.9855C107.051 23.0995 106.77 21.8384 107.005 20.4338C107.463 17.5706 109.791 15.5688 112.669 15.5688C114.105 15.5688 115.272 16.0456 116.04 16.9454C116.813 17.8545 117.119 19.1233 116.895 20.5219Z" fill="white"/>
<path d="M129.901 1.66146L125.568 29.2256C125.483 29.7595 125.897 30.2412 126.436 30.2412H130.791C131.515 30.2412 132.13 29.7165 132.241 29.0018L136.513 1.93487C136.598 1.4006 136.185 0.917532 135.646 0.917532H130.768C130.338 0.918821 129.967 1.2341 129.901 1.66146Z" fill="white"/>
</svg>
