<svg width="92" height="72" viewBox="0 0 92 72" fill="none" xmlns="http://www.w3.org/2000/svg">
<path d="M17.3816 71.1854V66.4946C17.3816 64.7003 16.2907 63.5254 14.4182 63.5254C13.4819 63.5254 12.4638 63.835 11.7639 64.8552C11.2185 63.999 10.4367 63.5254 9.26412 63.5254C8.48237 63.5254 7.70063 63.7622 7.0825 64.6184V63.6802H5.44629V71.1854H7.0825V67.0411C7.0825 65.7113 7.78244 65.0829 8.87325 65.0829C9.96406 65.0829 10.5095 65.7842 10.5095 67.0411V71.1854H12.1457V67.0411C12.1457 65.7113 12.9274 65.0829 13.9364 65.0829C15.0272 65.0829 15.5726 65.7842 15.5726 67.0411V71.1854H17.3816ZM41.6521 63.6802H38.9977V61.4123H37.3615V63.6802H35.8799V65.1648H37.3615V68.6077C37.3615 70.3292 38.0615 71.3402 39.934 71.3402C40.634 71.3402 41.4157 71.1034 41.9611 70.7937L41.4884 69.3819C41.0157 69.6916 40.4703 69.7736 40.0795 69.7736C39.2977 69.7736 38.9887 69.3 38.9887 68.5258V65.1648H41.643V63.6802H41.6521ZM55.5417 63.5163C54.6054 63.5163 53.9782 63.9899 53.5873 64.6092V63.6711H51.9511V71.1762H53.5873V66.95C53.5873 65.7022 54.1327 64.9918 55.1508 64.9918C55.4599 64.9918 55.8507 65.0738 56.1689 65.1466L56.6416 63.58C56.3143 63.5163 55.8507 63.5163 55.5417 63.5163ZM34.5527 64.2996C33.771 63.7531 32.6801 63.5163 31.5075 63.5163C29.635 63.5163 28.3896 64.4544 28.3896 65.939C28.3896 67.1869 29.3259 67.8973 30.9621 68.125L31.7439 68.207C32.5983 68.3618 33.071 68.5986 33.071 68.9903C33.071 69.5368 32.4438 69.9284 31.353 69.9284C30.2622 69.9284 29.3986 69.5368 28.8532 69.1451L28.0715 70.3929C28.9259 71.0214 30.0986 71.3311 31.2712 71.3311C33.4528 71.3311 34.7072 70.311 34.7072 68.9083C34.7072 67.5785 33.6891 66.8772 32.1347 66.6404L31.353 66.5584C30.6531 66.4764 30.1077 66.3216 30.1077 65.8571C30.1077 65.3106 30.6531 65.0009 31.5166 65.0009C32.4529 65.0009 33.3892 65.3925 33.8619 65.6294L34.5527 64.2996ZM78.0851 63.5163C77.1488 63.5163 76.5216 63.9899 76.1307 64.6092V63.6711H74.4945V71.1762H76.1307V66.95C76.1307 65.7022 76.6761 64.9918 77.6942 64.9918C78.0033 64.9918 78.3941 65.0738 78.7123 65.1466L79.185 63.5982C78.8668 63.5163 78.4032 63.5163 78.0851 63.5163ZM57.1779 67.4328C57.1779 69.7007 58.7414 71.3402 61.1593 71.3402C62.2502 71.3402 63.0319 71.1034 63.8136 70.484L63.0319 69.1542C62.4047 69.6279 61.7866 69.8556 61.0775 69.8556C59.7504 69.8556 58.8141 68.9174 58.8141 67.4328C58.8141 66.021 59.7504 65.0829 61.0775 65.01C61.7775 65.01 62.4047 65.2468 63.0319 65.7113L63.8136 64.3815C63.0319 63.7531 62.2502 63.5254 61.1593 63.5254C58.7414 63.5163 57.1779 65.1648 57.1779 67.4328ZM72.3129 67.4328V63.6802H70.6767V64.6184C70.1312 63.917 69.3495 63.5254 68.3314 63.5254C66.2225 63.5254 64.5863 65.1648 64.5863 67.4328C64.5863 69.7007 66.2225 71.3402 68.3314 71.3402C69.4222 71.3402 70.204 70.9485 70.6767 70.2472V71.1854H72.3129V67.4328ZM66.3043 67.4328C66.3043 66.103 67.1588 65.01 68.5678 65.01C69.8949 65.01 70.8312 66.0301 70.8312 67.4328C70.8312 68.7626 69.8949 69.8556 68.5678 69.8556C67.1679 69.7736 66.3043 68.7535 66.3043 67.4328ZM46.7243 63.5163C44.5427 63.5163 42.9792 65.0829 42.9792 67.4237C42.9792 69.7736 44.5427 71.3311 46.8061 71.3311C47.8969 71.3311 48.9877 71.0214 49.8513 70.311L49.0695 69.136C48.4423 69.6096 47.6606 69.9193 46.8879 69.9193C45.8698 69.9193 44.8608 69.4457 44.6245 68.125H50.1604C50.1604 67.8882 50.1604 67.7333 50.1604 67.4965C50.2331 65.0829 48.8241 63.5163 46.7243 63.5163ZM46.7243 64.928C47.7424 64.928 48.4423 65.5565 48.5969 66.7223H44.6972C44.8518 65.7113 45.5517 64.928 46.7243 64.928ZM87.3751 67.4328V60.7109H85.7389V64.6184C85.1935 63.917 84.4118 63.5254 83.3937 63.5254C81.2848 63.5254 79.6486 65.1648 79.6486 67.4328C79.6486 69.7007 81.2848 71.3402 83.3937 71.3402C84.4845 71.3402 85.2662 70.9485 85.7389 70.2472V71.1854H87.3751V67.4328ZM81.3666 67.4328C81.3666 66.103 82.221 65.01 83.63 65.01C84.9572 65.01 85.8934 66.0301 85.8934 67.4328C85.8934 68.7626 84.9572 69.8556 83.63 69.8556C82.221 69.7736 81.3666 68.7535 81.3666 67.4328ZM26.5898 67.4328V63.6802H24.9536V64.6184C24.4082 63.917 23.6264 63.5254 22.6083 63.5254C20.4994 63.5254 18.8632 65.1648 18.8632 67.4328C18.8632 69.7007 20.4994 71.3402 22.6083 71.3402C23.6992 71.3402 24.4809 70.9485 24.9536 70.2472V71.1854H26.5898V67.4328ZM20.5085 67.4328C20.5085 66.103 21.363 65.01 22.772 65.01C24.0991 65.01 25.0354 66.0301 25.0354 67.4328C25.0354 68.7626 24.0991 69.8556 22.772 69.8556C21.363 69.7736 20.5085 68.7535 20.5085 67.4328Z" fill="white"/>
<path d="M58.5864 6.68066H34.0068V50.9282H58.5864V6.68066Z" fill="#CCCCCC"/>
<path d="M35.6435 28.8049C35.6435 19.8152 39.8613 11.8364 46.3334 6.68116C41.5702 2.92858 35.5617 0.660645 29.0078 0.660645C13.4819 0.660645 0.919434 13.2482 0.919434 28.8049C0.919434 44.3617 13.4819 56.9492 29.0078 56.9492C35.5617 56.9492 41.5702 54.6813 46.3334 50.9287C39.8522 45.8464 35.6435 37.7947 35.6435 28.8049Z" fill="white"/>
<path d="M91.7475 28.8045C91.7475 44.3612 79.185 56.9488 63.6592 56.9488C57.1052 56.9488 51.0967 54.6808 46.3335 50.9283C52.8874 45.7639 57.0234 37.7942 57.0234 28.8045C57.0234 19.8147 52.8056 11.8359 46.3335 6.68067C51.0876 2.9281 57.0961 0.660156 63.6501 0.660156C79.185 0.660156 91.7475 13.3296 91.7475 28.8045Z" fill="white"/>
</svg>
