<svg width="136" height="46" viewBox="0 0 136 46" fill="none" xmlns="http://www.w3.org/2000/svg">
<path d="M58.9524 44.4559H47.9585L54.8349 1.68213H65.8282L58.9524 44.4559Z" fill="white"/>
<path d="M98.8064 2.72779C96.638 1.86232 93.1986 0.906738 88.9458 0.906738C78.0889 0.906738 70.4436 6.73095 70.3967 15.0578C70.3065 21.2014 75.8705 24.6136 80.0319 26.6621C84.2853 28.7553 85.7312 30.1215 85.7312 31.9873C85.6879 34.8529 82.2942 36.1738 79.1289 36.1738C74.7397 36.1738 72.3878 35.4928 68.8137 33.8985L67.3661 33.2151L65.8276 42.8169C68.4061 43.9986 73.1567 45.0474 78.0889 45.0933C89.6245 45.0933 97.1345 39.3592 97.2235 30.4856C97.2674 25.6164 94.3294 21.8854 87.9953 18.8366C84.1501 16.8795 81.7952 15.5598 81.7952 13.5573C81.8403 11.7369 83.7869 9.87227 88.1275 9.87227C91.7016 9.78095 94.3276 10.6452 96.3169 11.5101L97.3113 11.9643L98.8064 2.72779Z" fill="white"/>
<path d="M113.418 29.3027C114.324 26.8454 117.807 17.3349 117.807 17.3349C117.762 17.4262 118.711 14.8323 119.254 13.2398L120.022 16.9255C120.022 16.9255 122.104 27.1641 122.556 29.3027C120.838 29.3027 115.59 29.3027 113.418 29.3027ZM126.989 1.68213H118.485C115.863 1.68213 113.87 2.45506 112.739 5.23109L96.4087 44.4553H107.944C107.944 44.4553 109.843 39.176 110.252 38.039C111.517 38.039 122.739 38.039 124.367 38.039C124.683 39.5407 125.679 44.4553 125.679 44.4553H135.858L126.989 1.68213Z" fill="white"/>
<path d="M38.7754 1.68213L28.0087 30.8498L26.8322 24.9342C24.8416 18.1085 18.5989 10.6924 11.6323 7.00496L21.4942 44.4106H33.12L50.4006 1.68213H38.7754Z" fill="white"/>
<path d="M18.0112 1.68262H0.323047L0.14209 2.54687C13.94 6.09644 23.078 14.6525 26.8325 24.9365L22.9873 5.27814C22.3542 2.54627 20.4088 1.77273 18.0112 1.68262Z" fill="#CCCCCC"/>
</svg>
