<svg width="137" height="18" viewBox="0 0 137 18" fill="none" xmlns="http://www.w3.org/2000/svg">
<path d="M48.822 14.4688L49.3646 16.4593L49.1061 16.5882C48.4996 16.8744 47.9091 17.0662 46.9995 17.0662C45.011 17.0662 43.7789 15.8587 43.7789 13.9153L43.7757 8.06644H41.733V6.05706H43.7757V3.1735L46.227 2.52572V6.05706H48.8156V8.06644H46.227L46.2302 13.6072C46.2302 14.3147 46.709 14.8021 47.4495 14.8461C47.8613 14.8713 48.2698 14.7518 48.6305 14.5694L48.822 14.4688ZM109.16 6.05392V16.9467H111.611V6.05392H109.16ZM124.778 11.5003C124.778 14.6732 122.358 17.0662 119.147 17.0662C115.923 17.0662 113.495 14.6732 113.495 11.5003C113.495 8.32744 115.923 5.93443 119.147 5.93443C122.358 5.93443 124.778 8.32744 124.778 11.5003ZM122.336 11.5003C122.336 9.58526 120.995 8.19537 119.147 8.19537C117.286 8.19537 115.936 9.58526 115.936 11.5003C115.936 13.4153 117.286 14.8052 119.147 14.8052C120.995 14.8052 122.336 13.4153 122.336 11.5003ZM92.7094 11.2141C92.7094 11.2141 92.9329 14.6071 89.1665 14.6071C85.4002 14.6071 85.6268 11.1953 85.6268 11.1953V2.45339H83.0382V11.1135C83.0382 14.7361 85.4449 17.0662 89.1665 17.0662C92.8882 17.0662 95.2948 14.7361 95.2948 11.1324V2.45339H92.7062V11.2141H92.7094ZM110.386 0.93457C109.358 0.93457 108.525 1.7553 108.525 2.76785C108.525 3.2301 108.7 3.65462 108.988 3.97536H111.784C112.071 3.65147 112.247 3.2301 112.247 2.76785C112.247 1.7553 111.413 0.93457 110.386 0.93457ZM67.6984 5.95644C66.9611 6.05077 66.1887 6.29605 65.4992 6.84006V6.05392H63.0479V16.9467H65.4992V10.3242C65.4992 10.101 65.5375 9.88085 65.6237 9.67331C65.8344 9.17647 66.2397 8.65447 66.8334 8.40291C67.2324 8.2331 67.6122 8.1765 67.9378 8.1765C68.2921 8.1765 68.8123 8.2331 69.1762 8.41863V6.09165C69.173 6.09165 68.4357 5.8621 67.6984 5.95644ZM18.0274 2.45654L15.225 12.7644L11.8608 2.45654H9.22435L5.86018 12.7644L3.05457 2.45339H0.475586L4.42067 16.9467H6.99965L10.5458 6.19857L14.0887 16.9467H16.6677L20.6095 2.45654H18.0274ZM25.9526 17.0662C22.7289 17.0567 20.3159 14.6795 20.3095 11.5034C20.3095 10.8022 20.4308 10.0978 20.6798 9.44061C21.0596 8.44693 21.7331 7.5696 22.6108 6.95012C23.5684 6.27718 24.7429 5.93443 25.9143 5.93443C27.4656 5.93443 28.7199 6.46586 29.6232 7.41866C30.2424 8.07587 30.6606 8.90918 30.9031 9.76765C31.1202 10.5381 31.1425 11.3116 31.1425 12.1072H22.7289L22.7768 12.343C23.0864 13.8053 24.3567 14.7864 25.9526 14.7895C27.3315 14.7864 28.2348 14.148 28.7104 13.6763L30.3893 15.2172C29.3711 16.3649 27.7113 17.063 25.9526 17.0662ZM28.6242 10.3588C28.5157 9.65759 28.1741 9.00981 27.606 8.59473C26.99 8.14505 26.3899 8.06015 25.7388 8.06015C24.8355 8.06015 24.0152 8.48152 23.4471 9.13245C22.9938 9.64815 22.7896 10.3557 22.7896 10.3557H28.6242V10.3588ZM55.9748 17.0662C52.7511 17.0567 50.3381 14.6795 50.3317 11.5034C50.3317 10.8022 50.453 10.0978 50.702 9.44061C51.0818 8.44693 51.7553 7.5696 52.633 6.95012C53.5906 6.27718 54.7652 5.93443 55.9365 5.93443C57.4878 5.93443 58.7421 6.46586 59.6454 7.41866C60.2646 8.07587 60.6828 8.90918 60.9254 9.76765C61.1424 10.5381 61.1647 11.3116 61.1647 12.1072H52.7511L52.799 12.343C53.1086 13.8053 54.3789 14.7864 55.9748 14.7895C57.3537 14.7864 58.257 14.148 58.7326 13.6763L60.4115 15.2172C59.3901 16.3649 57.7335 17.063 55.9748 17.0662ZM58.6432 10.3588C58.5347 9.65759 58.1931 9.00981 57.625 8.59473C57.009 8.14505 56.4089 8.06015 55.7578 8.06015C54.8545 8.06015 54.0342 8.48152 53.4661 9.13245C53.0128 9.64815 52.8086 10.3557 52.8086 10.3557H58.6432V10.3588ZM37.1719 10.2802C36.1058 10.0318 35.3525 9.7645 35.3398 9.14502C35.3238 8.31486 36.0643 8.06329 37.3474 8.06329C37.8773 8.06329 39.5593 8.06015 39.5593 8.06015V6.05077L37.3698 6.05392C35.4451 6.05392 33.0257 6.46271 33.0257 9.29282C33.048 10.5632 33.9258 11.5475 35.56 12.0537C35.9366 12.1701 36.3197 12.2581 36.6899 12.3462C37.8262 12.6135 38.8061 12.8839 38.8188 13.7172C38.8316 14.4719 37.8102 14.9247 36.9548 14.9405C35.4483 14.9405 34.4524 14.0851 34.1396 13.7738L32.5405 15.2423C32.5405 15.2423 33.9386 17.0599 37.0506 17.0599C39.0902 17.0599 41.1744 15.758 41.1393 13.6323C41.101 11.5286 39.1125 10.7362 37.1719 10.2802ZM102.687 5.93443C101.819 5.93443 100.804 6.07907 99.9165 6.71742V6.05392H97.4652V16.9467H99.9165V10.3683C99.9165 9.39659 100.708 8.2331 102.263 8.2331C103.625 8.2331 104.545 9.14502 104.545 10.5035V16.9467H106.996V10.3462C106.996 7.64821 105.24 5.93443 102.687 5.93443ZM76.5652 5.93443C75.6971 5.93443 74.6821 6.07907 73.7947 6.71742V6.05392H71.3434V16.9467H73.7947V10.3683C73.7947 9.39659 74.5863 8.2331 76.1407 8.2331C77.5036 8.2331 78.4229 9.14502 78.4229 10.5035V16.9467H80.8742V10.3462C80.8742 7.64821 79.1187 5.93443 76.5652 5.93443ZM131.883 5.93443C131.014 5.93443 129.999 6.07907 129.112 6.71742V6.05392H126.661V16.9467H129.112V10.3683C129.112 9.39659 129.904 8.2331 131.458 8.2331C132.821 8.2331 133.74 9.14502 133.74 10.5035V16.9467H136.191V10.3462C136.191 7.64821 134.439 5.93443 131.883 5.93443Z" fill="white"/>
</svg>
