<svg width="136" height="20" viewBox="0 0 136 20" fill="none" xmlns="http://www.w3.org/2000/svg">
<path fill-rule="evenodd" clip-rule="evenodd" d="M20.8745 19.1337V9.40017C20.8745 6.63909 19.363 5.32828 16.825 5.32828C14.7147 5.32828 12.8895 6.55542 12.091 7.78257C11.5777 6.24864 10.2944 5.32828 8.26965 5.32828C6.15933 5.32828 4.3342 6.6112 3.76384 7.42001V5.66295H0.14209V19.1337H3.76384V10.0695C4.30568 9.3165 5.36084 8.47981 6.61562 8.47981C8.09854 8.47981 8.66889 9.37228 8.66889 10.6273V19.1337H12.3192V10.0416C12.8325 9.31651 13.8876 8.47981 15.1709 8.47981C16.6539 8.47981 17.2242 9.37228 17.2242 10.6273V19.1337H20.8745ZM30.8272 19.4684C26.2929 19.4684 23.5552 16.2332 23.5552 12.3844C23.5552 8.56348 26.2929 5.32828 30.8272 5.32828C35.39 5.32828 38.1277 8.56348 38.1277 12.3844C38.1277 16.2332 35.39 19.4684 30.8272 19.4684ZM30.8272 16.3168C33.0801 16.3168 34.3634 14.504 34.3634 12.3844C34.3634 10.2926 33.0801 8.47981 30.8272 8.47981C28.5743 8.47981 27.3195 10.2926 27.3195 12.3844C27.3195 14.504 28.5743 16.3168 30.8272 16.3168ZM53.7269 19.1337V9.62329C53.7269 7.00166 52.2725 5.32828 49.2496 5.32828C46.9967 5.32828 45.3142 6.38809 44.4301 7.42001V5.66295H40.8084V19.1337H44.4301V10.0695C45.029 9.26073 46.1412 8.47981 47.5671 8.47981C49.107 8.47981 50.1052 9.12128 50.1052 10.9899V19.1337H53.7269V19.1337ZM63.7081 19.4684C59.1738 19.4684 56.4361 16.2332 56.4361 12.3844C56.4361 8.56348 59.1738 5.32828 63.7081 5.32828C68.271 5.32828 71.0087 8.56348 71.0087 12.3844C71.0087 16.2332 68.271 19.4684 63.7081 19.4684ZM63.7081 16.3168C65.961 16.3168 67.2443 14.504 67.2443 12.3844C67.2443 10.2926 65.961 8.47981 63.7081 8.47981C61.4552 8.47981 60.2004 10.2926 60.2004 12.3844C60.2004 14.504 61.4552 16.3168 63.7081 16.3168ZM77.3111 14.8108C77.91 15.6754 79.2503 16.3168 80.4195 16.3168C82.5298 16.3168 83.9272 14.755 83.9272 12.4123C83.9272 10.0695 82.5298 8.47981 80.4195 8.47981C79.2503 8.47981 77.91 9.14917 77.3111 10.0416V14.8108ZM77.3111 19.1337H73.6893V0.53125H77.3111V7.39212C78.3948 6.02552 79.9347 5.32828 81.5602 5.32828C85.0679 5.32828 87.663 8.00569 87.663 12.4123C87.663 16.9025 85.0394 19.4684 81.5602 19.4684C79.9062 19.4684 78.3948 18.7432 77.3111 17.4045V19.1337ZM102.293 19.1337H98.6709V17.7392C97.7298 18.8269 96.1043 19.4684 94.3077 19.4684C92.1118 19.4684 89.5167 18.0181 89.5167 15.006C89.5167 11.8545 92.1118 10.6552 94.3077 10.6552C96.1328 10.6552 97.7583 11.2409 98.6709 12.3007V10.4879C98.6709 9.12128 97.4731 8.22881 95.648 8.22881C94.1651 8.22881 92.7962 8.75871 91.627 9.81852L90.2581 7.44789C91.9407 5.99763 94.108 5.32828 96.2754 5.32828C99.4123 5.32828 102.293 6.55543 102.293 10.4321V19.1337ZM95.7621 17.0698C96.9313 17.0698 98.072 16.6794 98.6709 15.8985V14.2251C98.072 13.4442 96.9313 13.0537 95.7621 13.0537C94.3362 13.0537 93.167 13.7789 93.167 15.0897C93.167 16.3447 94.3362 17.0698 95.7621 17.0698V17.0698ZM118.804 19.1337V9.62329C118.804 7.00166 117.35 5.32828 114.327 5.32828C112.074 5.32828 110.392 6.38809 109.508 7.42001V5.66295H105.886V19.1337H109.508V10.0695C110.106 9.26073 111.219 8.47981 112.645 8.47981C114.185 8.47981 115.183 9.12128 115.183 10.9899V19.1337H118.804ZM135.858 19.1337L130.24 11.7708L135.687 5.66295H131.238L126.019 11.6592V0.53125H122.398V19.1337H126.019V15.6754L127.673 13.9462L131.324 19.1337H135.858Z" fill="white"/>
</svg>
