<svg width="137" height="24" viewBox="0 0 137 24" fill="none" xmlns="http://www.w3.org/2000/svg">
<path d="M26.5351 20.2937H23.1899V8.46484H35.2324V20.2937H31.888V10.7628H26.5351V20.2937Z" fill="white"/>
<path d="M36.8555 11.7081V23.4196H39.9382V19.4146C40.9712 20.5304 42.6542 20.6147 43.0598 20.6147C45.9998 20.6147 47.804 18.7382 47.804 16.0176C47.804 13.1789 46.0195 11.3877 43.1209 11.3877C42.3902 11.3877 40.9712 11.506 39.7952 12.7399H39.7346L39.7546 11.7081H36.8555ZM39.7952 15.9836C39.7952 13.5846 41.2758 13.1116 42.2086 13.1116C43.1209 13.1116 44.6008 13.5846 44.6008 15.9836C44.6008 17.4713 43.9726 18.8913 42.2086 18.8913C40.4042 18.8913 39.7952 17.4713 39.7952 15.9836Z" fill="white"/>
<path d="M55.4468 19.2629C54.312 20.3267 53.2185 20.6146 52.0009 20.6146C48.6759 20.6146 48.5537 18.1133 48.5537 17.0828V11.708H51.6357V16.6766C51.6357 18.3839 52.2252 18.8912 53.3595 18.8912C55.3049 18.8912 55.4468 17.1503 55.4468 16.525V11.708H58.53V20.2929H55.4468V19.2629Z" fill="white"/>
<path d="M62.9492 16.6766H64.8349C66.2936 16.6766 66.5979 17.1163 66.5979 17.6911C66.5979 18.0625 66.3944 18.5698 64.8731 18.5698H62.9492V16.6766ZM59.8672 11.708V20.2929H65.9902C68.2202 20.2929 69.7607 19.8537 69.7607 18.0963C69.7607 16.7443 69.0096 16.153 67.3074 15.8491V15.7981C68.4228 15.646 69.3965 14.9529 69.3965 13.7873C69.3965 11.708 66.9631 11.708 66.0102 11.708H59.8672ZM62.9492 13.4326H64.6104C65.4825 13.4326 66.232 13.5677 66.232 14.2768C66.232 15.055 65.0565 15.0717 64.5498 15.0717H62.9492V13.4326Z" fill="white"/>
<path d="M73.6538 14.48C73.6538 13.2126 74.9917 13.1116 75.5395 13.1116C75.8845 13.1116 77.1609 13.1286 77.2025 14.2437C77.2025 14.3282 77.2025 14.3957 77.2025 14.48C77.1416 15.325 76.3306 15.1561 74.0606 15.4433C72.1941 15.6967 70.2275 16.1694 70.2275 18.1304C70.2275 18.8403 70.5319 20.6147 73.8164 20.6147C75.0743 20.6147 76.4531 20.293 77.2626 19.4486H77.3252L77.5877 20.293H80.8313V20.1415C80.2436 20.0229 80.2029 19.4486 80.2229 18.5189L80.2837 14.5979C80.3044 13.6016 80.2029 11.3877 75.5602 11.3877C74.4448 11.3877 70.8562 11.4888 70.7143 14.48H73.6538ZM77.2225 16.7445C77.2225 18.4683 75.7219 18.8913 74.9727 18.8913C74.4039 18.8913 73.3903 18.7047 73.3903 17.894C73.3903 16.9303 74.5456 16.7445 75.1953 16.6599C76.3915 16.4908 76.2897 16.5419 77.2225 16.2034V16.7445Z" fill="white"/>
<path d="M80.627 13.4326V11.708H90.5205V13.4326H87.1145V20.2929H84.0332V13.4326H80.627Z" fill="white"/>
<path d="M94.4567 10.7628H102.14V8.46484H91.1104V20.2937H97.882C101.167 20.2937 103.275 19.1453 103.275 16.7281C103.275 12.9434 99.0582 12.8584 97.882 12.8584H94.4567V10.7628ZM94.4567 15.1568H97.2334C98.0464 15.1568 99.6669 15.2416 99.6669 16.6606C99.6669 17.7761 98.4905 17.9955 97.1735 17.9955H94.4567V15.1568Z" fill="white"/>
<path d="M107.289 14.48C107.289 13.2126 108.628 13.1116 109.174 13.1116C109.519 13.1116 110.797 13.1286 110.838 14.2437C110.838 14.3282 110.838 14.3957 110.838 14.48C110.776 15.325 109.966 15.1561 107.693 15.4433C105.829 15.6967 103.863 16.1694 103.863 18.1304C103.863 18.8403 104.166 20.6147 107.451 20.6147C108.708 20.6147 110.087 20.293 110.898 19.4486H110.958L111.222 20.293H114.466V20.1415C113.88 20.0229 113.837 19.4486 113.858 18.5189L113.919 14.5979C113.939 13.6016 113.837 11.3877 109.194 11.3877C108.08 11.3877 104.49 11.4888 104.349 14.48H107.289ZM110.857 16.7445C110.857 18.4683 109.356 18.8913 108.607 18.8913C108.039 18.8913 107.026 18.7047 107.026 17.894C107.026 16.9303 108.18 16.7445 108.829 16.6599C110.026 16.4908 109.924 16.5419 110.857 16.2034V16.7445Z" fill="white"/>
<path d="M118.319 20.2929H115.237V11.708H118.319V14.9362H122.029V11.708H125.111V20.2929H122.029V16.6598H118.319V20.2929Z" fill="white"/>
<path d="M132.896 11.708H136.321L132.085 15.7298L136.525 20.2929H132.915L129.59 16.5417H129.53V20.2929H126.449V11.708H129.53V15.156H129.59L132.896 11.708Z" fill="white"/>
<path d="M0.808594 20.3231H8.52779V12.6025H0.808594V20.3231Z" fill="#CCCCCC"/>
<path d="M16.4778 4.66155C16.4778 7.28681 16.4778 13.6184 16.4778 16.2437C15.7447 16.2437 15.6156 16.2437 14.9031 16.2437C14.2232 10.5157 10.6247 6.91759 4.8967 6.23755C4.8967 5.52497 4.8967 5.39631 4.8967 4.66155C7.52177 4.66155 13.8528 4.66155 16.4778 4.66155ZM0.81543 0.580078V10.1896H2.85668C8.22831 10.1896 10.952 12.9132 10.952 18.284V20.3256H20.5591V0.580078H0.81543Z" fill="white"/>
</svg>
