<svg width="21" height="21" viewBox="0 0 21 21" fill="none" xmlns="http://www.w3.org/2000/svg">
<path d="M3 7.75L2.25 7.75L2.25 6.25L3 6.25L3 7.75ZM7.51986 1.42383L8.09602 0.943695L9.0563 2.09603L8.48014 2.57616L7.51986 1.42383ZM2 7L1.51986 7.57616L0.828462 7L1.51986 6.42383L2 7ZM8.48014 11.4238L9.0563 11.904L8.09602 13.0563L7.51986 12.5762L8.48014 11.4238ZM2 20.75L1.25 20.75L1.25 19.25L2 19.25L2 20.75ZM13.5 20L13.5 20.75L13.5 20ZM13.5 7.75L3 7.75L3 6.25L13.5 6.25L13.5 7.75ZM8.48014 2.57616L2.48014 7.57616L1.51986 6.42383L7.51986 1.42383L8.48014 2.57616ZM2.48014 6.42383L8.48014 11.4238L7.51986 12.5762L1.51986 7.57616L2.48014 6.42383ZM13.5 20.75L2 20.75L2 19.25L13.5 19.25L13.5 20.75ZM20.75 13.5C20.75 17.5041 17.5041 20.75 13.5 20.75L13.5 19.25C16.6756 19.25 19.25 16.6756 19.25 13.5L20.75 13.5ZM13.5 6.25C17.5041 6.25 20.75 9.49594 20.75 13.5L19.25 13.5C19.25 10.3244 16.6756 7.75 13.5 7.75L13.5 6.25Z" fill="white"/>
</svg>
