<svg width="20" height="20" viewBox="0 0 20 20" fill="none" xmlns="http://www.w3.org/2000/svg">
<g clip-path="url(#clip0_151:216)">
<path d="M14.9991 0H4.99939C2.2497 0 -0.000488281 2.25019 -0.000488281 4.99988V15.0001C-0.000488281 17.7491 2.2497 20 4.99939 20H14.9991C17.7488 20 19.999 17.7491 19.999 15.0001V4.99988C19.999 2.25019 17.7488 0 14.9991 0ZM18.3323 15.0001C18.3323 16.8376 16.8376 18.3333 14.9991 18.3333H4.99939C3.16169 18.3333 1.66622 16.8376 1.66622 15.0001V4.99988C1.66622 3.16193 3.16169 1.66671 4.99939 1.66671H14.9991C16.8376 1.66671 18.3323 3.16193 18.3323 4.99988V15.0001Z" fill="white"/>
<path d="M15.4175 5.83295C16.1078 5.83295 16.6674 5.27332 16.6674 4.58298C16.6674 3.89264 16.1078 3.33301 15.4175 3.33301C14.7271 3.33301 14.1675 3.89264 14.1675 4.58298C14.1675 5.27332 14.7271 5.83295 15.4175 5.83295Z" fill="white"/>
<path d="M10.0009 4.99902C7.23891 4.99902 5.00098 7.2372 5.00098 9.9989C5.00098 12.7596 7.23891 14.9993 10.0009 14.9993C12.762 14.9993 15.0007 12.7596 15.0007 9.9989C15.0007 7.2372 12.762 4.99902 10.0009 4.99902ZM10.0009 13.3326C8.16013 13.3326 6.66768 11.8401 6.66768 9.9989C6.66768 8.15769 8.16013 6.66573 10.0009 6.66573C11.8416 6.66573 13.334 8.15769 13.334 9.9989C13.334 11.8401 11.8416 13.3326 10.0009 13.3326Z" fill="white"/>
</g>
<defs>
<clipPath id="clip0_151:216">
<rect width="20" height="20" fill="white"/>
</clipPath>
</defs>
</svg>
